<svg width="243" height="39" viewBox="0 0 243 39" fill="none" xmlns="http://www.w3.org/2000/svg">
<path d="M57.3956 19.1573C57.3956 20.4053 57.2036 21.5093 56.8196 22.4693C56.4516 23.4293 55.9316 24.2373 55.2596 24.8933C54.5876 25.5333 53.7956 26.0213 52.8836 26.3573C51.9716 26.6933 50.9796 26.8613 49.9076 26.8613C48.8356 26.8613 47.8436 26.6933 46.9316 26.3573C46.0196 26.0213 45.2276 25.5333 44.5556 24.8933C43.8996 24.2373 43.3796 23.4293 42.9956 22.4693C42.6276 21.5093 42.4436 20.4053 42.4436 19.1573C42.4436 17.9093 42.6356 16.8133 43.0196 15.8693C43.4036 14.9093 43.9316 14.1093 44.6036 13.4693C45.2756 12.8133 46.0596 12.3173 46.9556 11.9813C47.8676 11.6453 48.8516 11.4773 49.9076 11.4773C50.9636 11.4773 51.9476 11.6453 52.8596 11.9813C53.7716 12.3173 54.5636 12.8133 55.2356 13.4693C55.9076 14.1093 56.4356 14.9093 56.8196 15.8693C57.2036 16.8133 57.3956 17.9093 57.3956 19.1573ZM53.5076 19.1573C53.5076 17.6213 53.1796 16.4693 52.5236 15.7013C51.8836 14.9173 51.0116 14.5253 49.9076 14.5253C48.8196 14.5253 47.9476 14.9173 47.2916 15.7013C46.6356 16.4693 46.3076 17.6213 46.3076 19.1573C46.3076 20.7093 46.6276 21.8773 47.2676 22.6613C47.9236 23.4293 48.8036 23.8133 49.9076 23.8133C51.0116 23.8133 51.8836 23.4293 52.5236 22.6613C53.1796 21.8773 53.5076 20.7093 53.5076 19.1573ZM72.8563 25.9973C72.6323 26.1893 72.3283 26.3413 71.9443 26.4533C71.5603 26.5813 71.1043 26.6453 70.5763 26.6453C70.0323 26.6453 69.5203 26.5573 69.0403 26.3813C68.5603 26.2053 68.1603 25.8053 67.8403 25.1813L65.0563 19.8053C64.7843 19.2933 64.5283 18.7813 64.2883 18.2693C64.0643 17.7573 63.8403 17.2213 63.6163 16.6613L63.4483 16.7093C63.5283 17.6693 63.5763 18.5893 63.5923 19.4693C63.6083 20.3333 63.6163 21.1733 63.6163 21.9893V26.4533C63.4563 26.4853 63.2163 26.5173 62.8963 26.5493C62.5923 26.5973 62.2723 26.6213 61.9363 26.6213C61.2163 26.6213 60.7123 26.5013 60.4243 26.2613C60.1363 26.0053 59.9923 25.5573 59.9923 24.9173V12.5573C60.1843 12.2853 60.4883 12.0773 60.9043 11.9333C61.3363 11.7733 61.7923 11.6933 62.2723 11.6933C62.8323 11.6933 63.3443 11.7813 63.8083 11.9573C64.2883 12.1333 64.6883 12.5253 65.0083 13.1333L67.8163 18.5333C68.0883 19.0453 68.3363 19.5573 68.5603 20.0693C68.8003 20.5813 69.0323 21.1173 69.2563 21.6773L69.3523 21.6533C69.2723 20.5813 69.2243 19.5653 69.2083 18.6053C69.2083 17.6453 69.2083 16.7253 69.2083 15.8453V11.8613C69.3683 11.8293 69.6003 11.7893 69.9043 11.7413C70.2243 11.6933 70.5603 11.6693 70.9123 11.6693C71.6323 11.6693 72.1363 11.7973 72.4243 12.0533C72.7123 12.2933 72.8563 12.7333 72.8563 13.3733V25.9973ZM78.1796 26.5013C77.5716 26.5013 77.0836 26.3253 76.7156 25.9733C76.3636 25.6053 76.1876 25.1173 76.1876 24.5093V11.8613C76.3636 11.8293 76.6116 11.7893 76.9316 11.7413C77.2676 11.6933 77.5956 11.6693 77.9156 11.6693C78.6356 11.6693 79.1556 11.7893 79.4756 12.0293C79.7956 12.2693 79.9556 12.7413 79.9556 13.4453V23.4533H85.7156C85.8116 23.6133 85.8996 23.8213 85.9796 24.0773C86.0756 24.3333 86.1236 24.6133 86.1236 24.9173C86.1236 25.4453 86.0036 25.8453 85.7636 26.1173C85.5396 26.3733 85.2276 26.5013 84.8276 26.5013H78.1796ZM90.4614 26.6213C89.7094 26.6213 89.1814 26.4933 88.8774 26.2373C88.5894 25.9813 88.4454 25.5173 88.4454 24.8453V11.8613C88.6214 11.8293 88.8694 11.7893 89.1894 11.7413C89.5254 11.6933 89.8614 11.6693 90.1974 11.6693C90.9174 11.6693 91.4294 11.7893 91.7334 12.0293C92.0534 12.2693 92.2134 12.7413 92.2134 13.4453V26.4293C92.0374 26.4773 91.7894 26.5173 91.4694 26.5493C91.1494 26.5973 90.8134 26.6213 90.4614 26.6213ZM108.434 25.9973C108.21 26.1893 107.906 26.3413 107.522 26.4533C107.138 26.5813 106.682 26.6453 106.154 26.6453C105.61 26.6453 105.098 26.5573 104.618 26.3813C104.138 26.2053 103.738 25.8053 103.418 25.1813L100.634 19.8053C100.362 19.2933 100.106 18.7813 99.8664 18.2693C99.6424 17.7573 99.4184 17.2213 99.1944 16.6613L99.0264 16.7093C99.1064 17.6693 99.1544 18.5893 99.1704 19.4693C99.1864 20.3333 99.1944 21.1733 99.1944 21.9893V26.4533C99.0344 26.4853 98.7944 26.5173 98.4744 26.5493C98.1704 26.5973 97.8504 26.6213 97.5144 26.6213C96.7944 26.6213 96.2904 26.5013 96.0024 26.2613C95.7144 26.0053 95.5704 25.5573 95.5704 24.9173V12.5573C95.7624 12.2853 96.0664 12.0773 96.4824 11.9333C96.9144 11.7733 97.3704 11.6933 97.8504 11.6933C98.4104 11.6933 98.9224 11.7813 99.3864 11.9573C99.8664 12.1333 100.266 12.5253 100.586 13.1333L103.394 18.5333C103.666 19.0453 103.914 19.5573 104.138 20.0693C104.378 20.5813 104.61 21.1173 104.834 21.6773L104.93 21.6533C104.85 20.5813 104.802 19.5653 104.786 18.6053C104.786 17.6453 104.786 16.7253 104.786 15.8453V11.8613C104.946 11.8293 105.178 11.7893 105.482 11.7413C105.802 11.6933 106.138 11.6693 106.49 11.6693C107.21 11.6693 107.714 11.7973 108.002 12.0533C108.29 12.2933 108.434 12.7333 108.434 13.3733V25.9973ZM113.758 26.5013C113.15 26.5013 112.662 26.3253 112.294 25.9733C111.942 25.6053 111.766 25.1173 111.766 24.5093V13.9013C111.766 13.2933 111.942 12.8133 112.294 12.4613C112.662 12.0933 113.15 11.9093 113.758 11.9093H121.702C121.798 12.0693 121.886 12.2693 121.966 12.5093C122.046 12.7493 122.086 13.0213 122.086 13.3253C122.086 13.8533 121.966 14.2453 121.726 14.5013C121.502 14.7573 121.182 14.8853 120.766 14.8853H115.438V17.5733H121.006C121.102 17.7333 121.19 17.9333 121.27 18.1733C121.35 18.4133 121.39 18.6853 121.39 18.9893C121.39 19.5173 121.278 19.9093 121.054 20.1653C120.83 20.4053 120.51 20.5253 120.094 20.5253H115.438V23.5253H121.798C121.894 23.6853 121.982 23.8933 122.062 24.1493C122.142 24.4053 122.182 24.6853 122.182 24.9893C122.182 25.5173 122.062 25.9013 121.822 26.1413C121.598 26.3813 121.286 26.5013 120.886 26.5013H113.758ZM136.393 14.9333V26.4293C136.217 26.4773 135.969 26.5173 135.649 26.5493C135.329 26.5973 134.993 26.6213 134.641 26.6213C133.889 26.6213 133.361 26.4933 133.057 26.2373C132.753 25.9813 132.601 25.5173 132.601 24.8453V14.9333H128.833C128.737 14.7733 128.641 14.5653 128.545 14.3093C128.465 14.0533 128.425 13.7733 128.425 13.4693C128.425 12.9253 128.545 12.5333 128.785 12.2933C129.025 12.0373 129.353 11.9093 129.769 11.9093H140.257C140.369 12.0693 140.465 12.2773 140.545 12.5333C140.625 12.7893 140.665 13.0693 140.665 13.3733C140.665 13.9013 140.545 14.2933 140.305 14.5493C140.065 14.8053 139.737 14.9333 139.321 14.9333H136.393ZM156.419 19.1573C156.419 20.4053 156.227 21.5093 155.843 22.4693C155.475 23.4293 154.955 24.2373 154.283 24.8933C153.611 25.5333 152.819 26.0213 151.907 26.3573C150.995 26.6933 150.003 26.8613 148.931 26.8613C147.859 26.8613 146.867 26.6933 145.955 26.3573C145.043 26.0213 144.251 25.5333 143.579 24.8933C142.923 24.2373 142.403 23.4293 142.019 22.4693C141.651 21.5093 141.467 20.4053 141.467 19.1573C141.467 17.9093 141.659 16.8133 142.043 15.8693C142.427 14.9093 142.955 14.1093 143.627 13.4693C144.299 12.8133 145.083 12.3173 145.979 11.9813C146.891 11.6453 147.875 11.4773 148.931 11.4773C149.987 11.4773 150.971 11.6453 151.883 11.9813C152.795 12.3173 153.587 12.8133 154.259 13.4693C154.931 14.1093 155.459 14.9093 155.843 15.8693C156.227 16.8133 156.419 17.9093 156.419 19.1573ZM152.531 19.1573C152.531 17.6213 152.203 16.4693 151.547 15.7013C150.907 14.9173 150.035 14.5253 148.931 14.5253C147.843 14.5253 146.971 14.9173 146.315 15.7013C145.659 16.4693 145.331 17.6213 145.331 19.1573C145.331 20.7093 145.651 21.8773 146.291 22.6613C146.947 23.4293 147.827 23.8133 148.931 23.8133C150.035 23.8133 150.907 23.4293 151.547 22.6613C152.203 21.8773 152.531 20.7093 152.531 19.1573ZM168.448 19.1813C168.448 17.6293 168.064 16.4773 167.296 15.7253C166.544 14.9573 165.56 14.5733 164.344 14.5733C164.056 14.5733 163.784 14.5813 163.528 14.5973C163.272 14.6133 163.016 14.6453 162.76 14.6933V23.6213C162.968 23.6693 163.216 23.7093 163.504 23.7413C163.808 23.7573 164.096 23.7653 164.368 23.7653C165.616 23.7653 166.608 23.3893 167.344 22.6373C168.08 21.8693 168.448 20.7173 168.448 19.1813ZM172.336 19.1333C172.336 20.4133 172.144 21.5333 171.76 22.4933C171.376 23.4533 170.832 24.2533 170.128 24.8933C169.44 25.5333 168.6 26.0133 167.608 26.3333C166.632 26.6533 165.544 26.8133 164.344 26.8133C164.072 26.8133 163.76 26.8053 163.408 26.7893C163.072 26.7733 162.72 26.7413 162.352 26.6933C162 26.6613 161.64 26.6053 161.272 26.5253C160.904 26.4613 160.568 26.3733 160.264 26.2613C159.432 25.9573 159.016 25.4133 159.016 24.6293V13.2053C159.016 12.8853 159.096 12.6373 159.256 12.4613C159.432 12.2853 159.68 12.1413 160 12.0293C160.656 11.8213 161.352 11.6853 162.088 11.6213C162.824 11.5573 163.496 11.5253 164.104 11.5253C165.336 11.5253 166.456 11.6773 167.464 11.9813C168.472 12.2853 169.336 12.7573 170.056 13.3973C170.776 14.0213 171.336 14.8133 171.736 15.7733C172.136 16.7173 172.336 17.8373 172.336 19.1333ZM189.138 19.1573C189.138 20.4053 188.946 21.5093 188.562 22.4693C188.194 23.4293 187.674 24.2373 187.002 24.8933C186.33 25.5333 185.538 26.0213 184.626 26.3573C183.714 26.6933 182.722 26.8613 181.65 26.8613C180.578 26.8613 179.586 26.6933 178.674 26.3573C177.762 26.0213 176.97 25.5333 176.298 24.8933C175.642 24.2373 175.122 23.4293 174.738 22.4693C174.37 21.5093 174.186 20.4053 174.186 19.1573C174.186 17.9093 174.378 16.8133 174.762 15.8693C175.146 14.9093 175.674 14.1093 176.346 13.4693C177.018 12.8133 177.802 12.3173 178.698 11.9813C179.61 11.6453 180.594 11.4773 181.65 11.4773C182.706 11.4773 183.69 11.6453 184.602 11.9813C185.514 12.3173 186.306 12.8133 186.978 13.4693C187.65 14.1093 188.178 14.9093 188.562 15.8693C188.946 16.8133 189.138 17.9093 189.138 19.1573ZM185.25 19.1573C185.25 17.6213 184.922 16.4693 184.266 15.7013C183.626 14.9173 182.754 14.5253 181.65 14.5253C180.562 14.5253 179.69 14.9173 179.034 15.7013C178.378 16.4693 178.05 17.6213 178.05 19.1573C178.05 20.7093 178.37 21.8773 179.01 22.6613C179.666 23.4293 180.546 23.8133 181.65 23.8133C182.754 23.8133 183.626 23.4293 184.266 22.6613C184.922 21.8773 185.25 20.7093 185.25 19.1573ZM198.531 26.5013C197.923 26.5013 197.435 26.3253 197.067 25.9733C196.715 25.6053 196.539 25.1173 196.539 24.5093V11.8613C196.715 11.8293 196.963 11.7893 197.283 11.7413C197.619 11.6933 197.947 11.6693 198.267 11.6693C198.987 11.6693 199.507 11.7893 199.827 12.0293C200.147 12.2693 200.307 12.7413 200.307 13.4453V23.4533H206.067C206.163 23.6133 206.251 23.8213 206.331 24.0773C206.427 24.3333 206.475 24.6133 206.475 24.9173C206.475 25.4453 206.355 25.8453 206.115 26.1173C205.891 26.3733 205.579 26.5013 205.179 26.5013H198.531ZM210.813 26.6213C210.061 26.6213 209.533 26.4933 209.229 26.2373C208.941 25.9813 208.797 25.5173 208.797 24.8453V11.8613C208.973 11.8293 209.221 11.7893 209.541 11.7413C209.877 11.6933 210.213 11.6693 210.549 11.6693C211.269 11.6693 211.781 11.7893 212.085 12.0293C212.405 12.2693 212.565 12.7413 212.565 13.4453V26.4293C212.389 26.4773 212.141 26.5173 211.821 26.5493C211.501 26.5973 211.165 26.6213 210.813 26.6213ZM220.29 23.7893C221.138 23.7893 221.738 23.6453 222.09 23.3573C222.458 23.0533 222.642 22.6933 222.642 22.2773C222.642 21.8933 222.498 21.5893 222.21 21.3653C221.938 21.1253 221.522 20.9173 220.962 20.7413L219.738 20.3573C219.066 20.1493 218.458 19.9253 217.914 19.6853C217.37 19.4293 216.906 19.1333 216.522 18.7973C216.138 18.4453 215.834 18.0373 215.61 17.5733C215.402 17.0933 215.298 16.5173 215.298 15.8453C215.298 14.5013 215.802 13.4373 216.81 12.6533C217.834 11.8693 219.25 11.4773 221.058 11.4773C221.746 11.4773 222.378 11.5253 222.954 11.6213C223.546 11.7173 224.05 11.8693 224.466 12.0773C224.882 12.2693 225.21 12.5093 225.45 12.7973C225.69 13.0853 225.81 13.4213 225.81 13.8053C225.81 14.1733 225.714 14.5013 225.522 14.7893C225.346 15.0613 225.138 15.2933 224.898 15.4853C224.53 15.2293 224.042 15.0133 223.434 14.8373C222.826 14.6613 222.162 14.5733 221.442 14.5733C220.674 14.5733 220.106 14.6933 219.738 14.9333C219.37 15.1733 219.186 15.4773 219.186 15.8453C219.186 16.1653 219.306 16.4133 219.546 16.5893C219.786 16.7493 220.162 16.9173 220.674 17.0933L221.97 17.5253C222.722 17.7813 223.378 18.0613 223.938 18.3653C224.514 18.6533 224.994 18.9893 225.378 19.3733C225.762 19.7413 226.05 20.1733 226.242 20.6693C226.434 21.1493 226.53 21.7013 226.53 22.3253C226.53 22.9973 226.394 23.6133 226.122 24.1733C225.866 24.7173 225.474 25.1893 224.946 25.5893C224.434 25.9893 223.794 26.3013 223.026 26.5253C222.274 26.7493 221.402 26.8613 220.41 26.8613C219.674 26.8613 218.994 26.7973 218.37 26.6693C217.746 26.5573 217.202 26.3893 216.738 26.1653C216.29 25.9413 215.93 25.6693 215.658 25.3493C215.402 25.0133 215.274 24.6373 215.274 24.2213C215.274 23.7893 215.394 23.4293 215.634 23.1413C215.89 22.8533 216.17 22.6213 216.474 22.4453C216.906 22.7973 217.442 23.1093 218.082 23.3813C218.738 23.6533 219.474 23.7893 220.29 23.7893ZM235.439 14.9333V26.4293C235.263 26.4773 235.015 26.5173 234.695 26.5493C234.375 26.5973 234.039 26.6213 233.687 26.6213C232.935 26.6213 232.407 26.4933 232.103 26.2373C231.799 25.9813 231.647 25.5173 231.647 24.8453V14.9333H227.879C227.783 14.7733 227.687 14.5653 227.591 14.3093C227.511 14.0533 227.471 13.7733 227.471 13.4693C227.471 12.9253 227.591 12.5333 227.831 12.2933C228.071 12.0373 228.399 11.9093 228.815 11.9093H239.303C239.415 12.0693 239.511 12.2773 239.591 12.5333C239.671 12.7893 239.711 13.0693 239.711 13.3733C239.711 13.9013 239.591 14.2933 239.351 14.5493C239.111 14.8053 238.783 14.9333 238.367 14.9333H235.439Z" fill="#333333"/>
<g clip-path="url(#clip0_2_9)">
<path d="M30.4729 18.756C30.3871 18.7292 30.3045 18.7223 30.2246 18.7356C30.0525 18.764 29.9118 18.8551 29.8017 19.0093L28.7425 20.4881C28.6435 20.6268 28.608 20.7818 28.6364 20.9539L29.4693 25.9896C29.6136 26.8621 29.4271 27.6599 28.9082 28.3842C28.3898 29.1081 27.6942 29.5423 26.8217 29.6866L10.3255 32.4149C9.45301 32.5592 8.65475 32.3721 7.93083 31.8536C7.20672 31.3349 6.77277 30.6398 6.62844 29.7671L3.90024 13.2713C3.75596 12.3989 3.94294 11.6008 4.46149 10.8766C4.97993 10.1526 5.67546 9.71854 6.54797 9.57423L23.0443 6.84594C23.3352 6.79784 23.6391 6.78831 23.9562 6.81742C24.0399 6.83054 24.1016 6.83411 24.1407 6.82763C24.3128 6.79917 24.454 6.70812 24.5642 6.55412L25.3751 5.42189C25.5074 5.23728 25.5354 5.03559 25.4582 4.81769C25.3836 4.61272 25.2393 4.48033 25.0258 4.42069C24.2579 4.20867 23.4568 4.17085 22.6241 4.30857L6.1283 7.03677C4.55537 7.29692 3.30271 8.07784 2.37048 9.37953C1.43841 10.6813 1.10235 12.1185 1.3625 13.6915L4.09078 30.1878C4.35089 31.7605 5.13181 33.0131 6.43343 33.9453C7.73517 34.8778 9.17255 35.2138 10.7455 34.9537L27.2416 32.2254C28.8144 31.9653 30.0672 31.1844 30.9993 29.8824C31.9316 28.5807 32.2682 27.1434 32.0081 25.5706L30.9652 19.2652C30.9192 18.9878 30.7547 18.8183 30.4729 18.756Z" fill="#333333"/>
<path d="M33.5676 6.55211L31.0257 4.73165C30.656 4.46696 30.2528 4.37069 29.8165 4.44285C29.3807 4.51492 29.0297 4.73592 28.7652 5.1055L18.0585 20.0554L11.9818 15.7032C11.612 15.4383 11.209 15.3423 10.773 15.4144C10.3368 15.4865 9.98638 15.7072 9.7215 16.0771L7.90126 18.6187C7.6365 18.9884 7.54007 19.3914 7.61223 19.8278C7.68436 20.2639 7.90541 20.6143 8.27512 20.8792L18.2108 27.9948C18.5806 28.2597 18.9836 28.3557 19.4196 28.2836C19.8557 28.2115 20.2062 27.9909 20.4711 27.6209L33.9412 8.81238C34.2058 8.44279 34.3024 8.03962 34.2303 7.60351C34.1582 7.16739 33.9373 6.8168 33.5676 6.55211Z" fill="#333333"/>
</g>
<defs>
<clipPath id="clip0_2_9">
<rect width="33.4206" height="33.4206" fill="white" transform="translate(0 5.45328) rotate(-9.391)"/>
</clipPath>
</defs>
</svg>
